HIERARCHY
ROOT pelvis
{
  OFFSET 0 100 0
  CHANNELS 6 Xposition Yposition Zposition Zrotation Xrotation Yrotation
  JOINT pelvis_right_femur
  {
    OFFSET -10.78128 -3.44521 -0.5502486
    CHANNELS 3 Zrotation Xrotation Yrotation
    JOINT right_femur_tibia
    {
      OFFSET -0.8047443 -44.0398 -0.1307829
      CHANNELS 3 Zrotation Xrotation Yrotation
      JOINT right_tibia_foot
      {
        OFFSET 3.006224 -47.83518 -5
        CHANNELS 3 Zrotation Xrotation Yrotation
        End Site
        {
          OFFSET 0 -5 15
        }
      }
    }
  }
  JOINT pelvis_left_femur
  {
    OFFSET 10.78128 -3.44521 -0.5502486
    CHANNELS 3 Zrotation Xrotation Yrotation
    JOINT left_femur_tibia
    {
      OFFSET 0.8047443 -44.0398 -0.1307829
      CHANNELS 3 Zrotation Xrotation Yrotation
      JOINT left_tibia_foot
      {
        OFFSET -4.370144 -48.10324 -4.275266
        CHANNELS 3 Zrotation Xrotation Yrotation
        End Site
        {
          OFFSET 0 -5 15
        }
      }
    }
  }
  JOINT pelvis_spine1
  {
    OFFSET 0 6.468898 -3.129235
    CHANNELS 3 Zrotation Xrotation Yrotation
    JOINT spine1
    {
      OFFSET 0 23.15396 4.99043
      CHANNELS 3 Zrotation Xrotation Yrotation
      JOINT spine2
      {
        OFFSET 0 20.79997 -5.064912
        CHANNELS 3 Zrotation Xrotation Yrotation
        JOINT neck
        {
          OFFSET 0 14.38658 9.616178
          CHANNELS 3 Zrotation Xrotation Yrotation
          End Site
          {
            OFFSET 0 20 0
          }
        }
      }
      JOINT right_manubrium
      {
        OFFSET -5.722621 16.35077 3.967754
        CHANNELS 3 Zrotation Xrotation Yrotation
        JOINT right_clavicle
        {
          OFFSET -13.16364 1.694482 -4.693211
          CHANNELS 3 Zrotation Xrotation Yrotation
          JOINT right_humerus
          {
            OFFSET -28.5034 -0.3100689 -2.792744
            CHANNELS 3 Zrotation Xrotation Yrotation
            JOINT right_radius
            {
              OFFSET -25.15693 0.02248979 -1.271978
              CHANNELS 3 Zrotation Xrotation Yrotation
              End Site
              {
                OFFSET -15 0 0
              }
            }
          }
        }
      }
      JOINT left_manubrium
      {
        OFFSET 5.722621 16.35077 3.967754
        CHANNELS 3 Zrotation Xrotation Yrotation
        JOINT left_clavicle
        {
          OFFSET 13.16364 1.694482 -4.693211
          CHANNELS 3 Zrotation Xrotation Yrotation
          JOINT left_humerus
          {
            OFFSET 29.39168 -1.063119 -2.237045
            CHANNELS 3 Zrotation Xrotation Yrotation
            JOINT left_radius
            {
              OFFSET 24.59957 -0.9528479 0.9047498
              CHANNELS 3 Zrotation Xrotation Yrotation
              End Site
              {
                OFFSET 15 -0 -0
              }
            }
          }
        }
      }
    }
  }
}
MOTION
Frames: 8
Frame Time: 0.0416666666667
26.68902 105.3205 237.1308 2.016028 -7.067803 2.362863 0.5839027 10.634 7.353633 -1.17812e-09 34.55576 -1.103523e-10 4.191633 -12.73262 -4.673609 -2.372187 -17.61629 -7.648629 6.582493e-10 19.26627 1.198715e-09 -1.805621 -7.840405 20.68211 -2.536593 0.0571096 7.798869 -0.6043659 10.39075 -3.923022 2.399399 21.94369 5.304981 1.570457 -16.47779 7.892672 2.940855 -21.21119 11.26223 81.96049 27.67533 -6.6579 -2.170431e-09 -3.381741e-10 23.47149 -23.83052 14.54555 14.14831 3.442178 -15.26797 -3.095327 -91.96481 21.70687 23.04197 9.282486e-10 -5.87761e-10 -11.68668 -0.1992553 6.206537 14.53893
27.90805 105.602 242.9676 2.182401 -7.492212 2.593128 0.1721969 8.882879 7.516479 -1.866489e-09 41.10424 7.721989e-11 4.286764 -10.16511 -5.286642 -3.430689 -14.51535 -8.704626 4.730186e-10 20.61226 6.536153e-10 -1.698321 -8.279039 20.60136 -2.748148 0.04337017 7.291633 -0.7030024 10.39736 -3.953702 2.45494 22.0735 5.47317 1.641278 -16.37884 8.109652 3.253701 -20.34012 11.13454 82.25327 27.74133 -7.322395 -2.432316e-09 -4.729088e-10 22.17432 -23.32798 14.28182 13.63963 3.229592 -14.99654 -3.23994 -91.19107 22.19281 22.11696 9.055968e-10 -6.587267e-10 -11.16572 -0.1654746 6.315748 14.55695
29.10936 106.2838 248.6427 2.410869 -7.989269 3.045698 -0.2282964 5.797056 7.667185 -2.713156e-09 47.99663 3.579888e-10 4.630636 -7.689997 -6.206272 -4.595144 -10.0196 -9.960598 4.226109e-10 21.02282 9.394638e-12 -1.479802 -9.326715 20.579 -3.01535 -0.003094882 6.628176 -0.752032 10.39273 -4.136146 2.539195 22.26691 5.651696 1.647352 -16.22182 8.437096 3.533409 -19.35899 10.97428 83.12128 27.69679 -8.542254 -2.741847e-09 -4.639036e-10 20.71146 -22.66703 14.07995 12.92904 3.130324 -14.88799 -3.47085 -90.36655 22.7703 20.71575 9.684685e-10 -7.448558e-10 -11.11274 -0.1074251 6.544689 14.49253
30.25159 107.2041 254.0609 2.590487 -8.355011 3.651559 -0.3434935 1.551339 7.742906 -3.23276e-09 52.68061 4.712361e-10 4.917217 -6.262116 -7.217379 -5.528209 -4.670844 -11.22838 3.014879e-10 20.7136 -2.158267e-10 -1.21909 -10.80443 20.55447 -3.217341 -0.07272275 5.869163 -0.6628817 10.2653 -4.461301 2.64448 22.42545 5.737519 1.565485 -16.04251 8.770441 3.679182 -18.31859 10.75025 84.05436 27.50214 -10.13327 -2.962321e-09 -2.879863e-10 19.15565 -21.48475 13.84654 11.83555 3.201018 -14.976 -3.693559 -89.27494 23.45457 18.84799 1.116471e-09 -8.186386e-10 -11.6078 0.02689133 7.038174 14.17206
31.31732 108.1547 259.2489 2.705773 -8.458835 4.345427 -0.2321019 -3.179705 7.565549 -3.328569e-09 54.3563 3.878411e-10 4.99258 -5.613427 -8.045415 -6.118605 0.5732185 -12.22799 2.937882e-10 19.53427 -3.002314e-10 -0.9160508 -12.50555 20.46417 -3.350765 -0.133775 5.121506 -0.4695602 10.06004 -4.872635 2.724452 22.55272 5.787176 1.475336 -15.94451 9.046274 3.668414 -17.3839 10.5217 85.05315 27.27805 -11.85957 -2.973685e-09 -5.472681e-11 17.62196 -20.26181 13.5947 10.74503 3.472207 -15.32691 -3.896235 -88.12196 23.98258 16.72617 1.245427e-09 -8.70812e-10 -12.72721 0.362168 7.668816 13.53668
32.29998 108.8935 264.3212 2.746179 -8.260827 5.056825 0.03252513 -7.943653 7.067395 -2.917243e-09 52.41334 8.966762e-11 4.868395 -5.720336 -8.582475 -6.342088 5.097014 -12.77867 4.403556e-10 17.49811 -2.791169e-10 -0.6676572 -14.30304 20.25187 -3.413026 -0.1350907 4.450971 -0.2009766 9.760356 -5.313571 2.771913 22.65378 5.813464 1.400059 -15.90537 9.232183 3.475651 -16.58654 10.29713 86.03873 27.07364 -13.52218 -2.704806e-09 1.463657e-10 16.17289 -19.28385 13.36974 9.876121 3.964391 -15.92353 -4.044906 -86.94461 24.2324 14.36121 1.305189e-09 -9.075226e-10 -14.52903 0.9096267 8.286303 12.61315
33.17086 109.2391 269.2999 2.665943 -7.788065 5.707644 0.4581891 -12.62027 6.373469 -2.086385e-09 47.32592 -3.340229e-10 4.397384 -6.621777 -8.818403 -6.273367 8.987809 -13.08836 5.939483e-10 15.1287 7.791554e-11 -0.4958984 -16.04721 19.92431 -3.379416 -0.08936015 3.820835 0.1451834 9.306793 -5.733223 2.799999 22.67797 5.774153 1.331754 -15.90376 9.308262 3.140414 -15.81454 10.03076 86.57301 26.8945 -14.97672 -2.205256e-09 2.807654e-10 14.71195 -18.17514 13.02802 9.003167 4.597688 -16.60833 -4.085412 -85.49667 24.34852 11.78988 1.311439e-09 -9.308809e-10 -16.6327 1.624403 8.984966 11.40258
33.94017 109.1071 274.4129 2.562375 -7.200294 6.288004 0.8228319 -16.8868 5.403707 -1.193952e-09 40.37722 -5.571735e-10 3.931493 -7.402761 -8.897307 -6.085503 11.98446 -12.86609 7.101283e-10 13.28964 3.940411e-10 -0.589764 -17.64356 19.38844 -3.320737 0.08699676 3.294347 0.4739292 8.854097 -6.116212 2.812064 22.80778 5.794001 1.340916 -15.94413 9.338434 2.750197 -15.05206 9.824189 87.50353 26.87111 -16.41926 -1.470384e-09 2.396085e-10 13.1595 -17.74197 12.84847 8.591418 5.353796 -17.46191 -4.094843 -84.35337 24.13881 9.018252 1.182602e-09 -9.423415e-10 -19.29686 2.487497 9.401528 10.14539
